<?xml version="1.0" encoding="UTF-8" standalone="no"?>
<!-- Created with Inkscape (http://www.inkscape.org/) -->

<svg
   width="54.792816mm"
   height="54.952396mm"
   viewBox="0 0 54.792816 54.952396"
   version="1.1"
   id="svg1"
   xmlns="http://www.w3.org/2000/svg"
   xmlns:svg="http://www.w3.org/2000/svg">
  <defs
     id="defs1" />
  <g
     id="layer1"
     transform="translate(-40.383617,-56.741538)">
    <path
       style="fill:#1a1a1a;stroke-width:0.25"
       d="m 56.603928,73.355051 h 35.767056 a 2.096246,2.096246 111.70851 0 0 1.440757,-3.618897 L 80.078491,56.741538 h -32.56952 -0.838323 a 6.28703,6.28703 135 0 0 -6.28703,6.28703 v 26.778603 a 8.3190607,8.3190607 65.794529 0 0 2.797006,6.222032 l 14.069314,12.486517 a 12.608175,12.608175 20.794522 0 0 8.369101,3.17821 l 26.035834,-10e-6 a 3.5215604,3.5215604 120.48725 0 0 3.079266,-5.23022 L 90.682963,99.162853 A 7.4336313,7.4336313 30.487254 0 0 84.182967,95.33601 H 56.094039 a 4.7958609,4.7958609 44.953131 0 1 -4.795854,-4.788015 l -0.0194,-11.859079 a 5.325153,5.325153 134.95313 0 1 5.325146,-5.333865 z"
       id="path1" />
  </g>
</svg>
